<svg width="59" height="59" viewBox="0 0 59 59" fill="none" xmlns="http://www.w3.org/2000/svg">
<path d="M29.137 38.085C29.1801 38.1401 29.2352 38.1846 29.2981 38.2153C29.361 38.2459 29.43 38.2618 29.5 38.2618C29.57 38.2618 29.639 38.2459 29.7019 38.2153C29.7648 38.1846 29.8199 38.1401 29.863 38.085L36.3161 29.9206C36.5523 29.621 36.3392 29.1773 35.9531 29.1773H31.6837V9.67969C31.6837 9.42617 31.4763 9.21875 31.2228 9.21875H27.7657C27.5122 9.21875 27.3048 9.42617 27.3048 9.67969V29.1716H23.0469C22.6608 29.1716 22.4477 29.6152 22.6839 29.9148L29.137 38.085ZM50.5879 36.0684H47.1309C46.8773 36.0684 46.6699 36.2758 46.6699 36.5293V45.4023H12.3301V36.5293C12.3301 36.2758 12.1227 36.0684 11.8691 36.0684H8.41211C8.15859 36.0684 7.95117 36.2758 7.95117 36.5293V47.9375C7.95117 48.9573 8.7751 49.7812 9.79492 49.7812H49.2051C50.2249 49.7812 51.0488 48.9573 51.0488 47.9375V36.5293C51.0488 36.2758 50.8414 36.0684 50.5879 36.0684Z" fill="#202020"/>
</svg>
