<svg width="40" height="40" viewBox="0 0 40 40" fill="none" xmlns="http://www.w3.org/2000/svg">
<g clip-path="url(#clip0_1207_8061)">
<path d="M20 8.07812C12.3576 8.07812 5.42702 12.2594 0.312979 19.0508C-0.104326 19.6072 -0.104326 20.3846 0.312979 20.941C5.42702 27.7406 12.3576 31.9218 20 31.9218C27.6424 31.9218 34.573 27.7406 39.687 20.9491C40.1043 20.3927 40.1043 19.6154 39.687 19.059C34.573 12.2594 27.6424 8.07812 20 8.07812ZM20.5482 28.3952C15.4751 28.7143 11.2857 24.5331 11.6048 19.4518C11.8666 15.2623 15.2624 11.8666 19.4518 11.6048C24.5249 11.2857 28.7143 15.4669 28.3952 20.5482C28.1252 24.7294 24.7295 28.1252 20.5482 28.3952ZM20.2946 24.5167C17.5616 24.6885 15.3033 22.4384 15.4833 19.7054C15.6224 17.4471 17.4553 15.6224 19.7136 15.4751C22.4466 15.3032 24.7049 17.5534 24.5249 20.2864C24.3776 22.5529 22.5447 24.3776 20.2946 24.5167Z" fill="#CDCED0"/>
</g>
<defs>
<clipPath id="clip0_1207_8061">
<rect width="40" height="40" fill="white"/>
</clipPath>
</defs>
</svg>
