<svg width="39" height="39" viewBox="0 0 39 39" fill="none" xmlns="http://www.w3.org/2000/svg">
<g clip-path="url(#clip0_1207_8079)">
<path d="M19.2031 13.3235L24.7859 18.9063L24.8125 18.6138C24.8125 15.6806 22.4288 13.2969 19.4956 13.2969L19.2031 13.3235Z" fill="#CDCED0"/>
<path d="M19.4957 9.75226C24.3873 9.75226 28.3574 13.7223 28.3574 18.6139C28.3574 19.7571 28.127 20.847 27.7282 21.8484L32.9123 27.0324C35.5884 24.7993 37.6975 21.9104 39.0002 18.6139C35.9252 10.8334 28.3662 5.32147 19.4958 5.32147C17.0145 5.32147 14.6396 5.76453 12.4331 6.56207L16.2613 10.3814C17.2626 9.99152 18.3526 9.75226 19.4957 9.75226Z" fill="#CDCED0"/>
<path d="M1.7723 4.92262L5.8132 8.96352L6.61963 9.76995C3.6953 12.0562 1.38241 15.0958 0 18.6138C3.06615 26.3943 10.6339 31.9063 19.4956 31.9063C22.2427 31.9063 24.8657 31.3746 27.2673 30.4086L28.0205 31.1619L33.1869 36.337L35.4466 34.0862L4.03201 2.6629L1.7723 4.92262ZM11.5733 14.7147L14.3115 17.453C14.2318 17.8341 14.1786 18.215 14.1786 18.6138C14.1786 21.547 16.5624 23.9308 19.4956 23.9308C19.8944 23.9308 20.2754 23.8776 20.6476 23.7979L23.3859 26.5361C22.2073 27.121 20.8958 27.4755 19.4956 27.4755C14.604 27.4755 10.6339 23.5054 10.6339 18.6138C10.6339 17.2137 10.9884 15.9022 11.5733 14.7147Z" fill="#CDCED0"/>
</g>
<defs>
<clipPath id="clip0_1207_8079">
<rect width="39" height="39" fill="white"/>
</clipPath>
</defs>
</svg>
